<?xml version="1.0" encoding="UTF-8"?>
<svg id="Camada_2" data-name="Camada 2" xmlns="http://www.w3.org/2000/svg" viewBox="0 0 280 280">
  <defs>
    <style>
      .cls-1 {
        fill: #83c1e9;
      }

      .cls-2 {
        fill: #e95c42;
      }

      .cls-3 {
        fill: #ebbe28;
      }
    </style>
  </defs>
  <g id="Camada_3" data-name="Camada 3">
    <rect class="cls-1" width="280" height="280"/>
    <circle class="cls-2" cx="140" cy="140" r="98.42"/>
    <path class="cls-3" d="M187.64,140c0-4.95-1.38-10.1-2.83-14.56s-3.44-9.61-6.25-13.46-6.75-7.58-10.64-10.41c-3.85-2.8-9.6-2.22-14.22-3.73s-8.75-3.04-13.7-3.04-9.5.78-13.96,2.23-9.91,2.01-13.76,4.81-5.82,7.84-8.65,11.73-5.35,7.75-6.85,12.38-2.82,9.09-2.82,14.04,2.48,9.22,3.93,13.68,1.46,9.96,4.26,13.81,7.84,5.62,11.73,8.45,7.61,5.25,12.24,6.75,8.93,2.89,13.87,2.89,9.96.27,14.43-1.18,8.91-4.17,12.77-6.98,5.75-7.55,8.59-11.44,6.08-7.28,7.58-11.9,4.28-9.14,4.28-14.09Z"/>
  </g>
</svg>