<?xml version="1.0" encoding="UTF-8"?>
<svg id="Camada_2" data-name="Camada 2" xmlns="http://www.w3.org/2000/svg" viewBox="0 0 280 280">
  <defs>
    <style>
      .cls-1 {
        fill: #ebbe28;
      }

      .cls-2 {
        fill: #8f9928;
      }

      .cls-3 {
        fill: #0e3e66;
      }
    </style>
  </defs>
  <g id="Camada_3" data-name="Camada 3">
    <rect class="cls-3" width="280" height="280"/>
    <g>
      <g>
        <g>
          <path class="cls-2" d="M125.81,195.49c-32.8-36.33-55.17-1-75.66-25.2-10.34-13.55,2.27-31.85,17.42-32.52,27.97-2.35,72.48,26.28,80.55,52.71,1.62,6.8-.9,17.48-8.5,17.92-3.96-.16-7.95-6.15-13.38-12.41l-.44-.5Z"/>
          <path class="cls-2" d="M154.19,195.49c32.8-36.33,55.17-1,75.66-25.2,10.34-13.55-2.27-31.85-17.42-32.52-27.97-2.35-72.48,26.28-80.55,52.71-1.62,6.8.9,17.48,8.5,17.92,3.96-.16,7.95-6.15,13.38-12.41l.44-.5Z"/>
        </g>
        <g>
          <path class="cls-2" d="M93.76,124.61c-13-6.69-25.52-6.32-32.37-15.98-9.98-13.7,4.18-35.61,20.45-30.98,26.17,4.77,60.58,51.68,60.52,88.78.35,6.13.06,15.39-2.42,19.4-.46.68-.95,1.06-1.47,1.14-.51.08-1.05-.13-1.59-.62-4.36-3.95-8.61-23.64-19.55-40.14-5.85-9.02-14.02-16.8-23.01-21.31l-.57-.29Z"/>
          <path class="cls-2" d="M186.24,124.61c13-6.69,25.52-6.32,32.37-15.98,9.98-13.7-4.18-35.61-20.45-30.98-26.17,4.77-60.58,51.68-60.52,88.78-.35,6.13-.06,15.39,2.42,19.4.46.68.95,1.06,1.47,1.14.51.08,1.05-.13,1.59-.62,4.36-3.95,8.61-23.64,19.55-40.14,5.85-9.02,14.02-16.8,23.01-21.31l.57-.29Z"/>
        </g>
        <path class="cls-2" d="M160.97,73.43c-.07-8.93-2.32-19.23-8.92-24.4-8.5-6.89-21.97-5.19-28.07,4.44-7.31,12.39-4.96,27.9-3.14,41.85,2.03,14.84,16.35,74.22,20.82,63.25,10.2-24.51,18.71-57.5,19.32-84.54v-.6Z"/>
      </g>
      <path class="cls-1" d="M138.88,202.37c22.98-2.89,28.62,30.32,3.49,32.65-26.75,2.48-28.61-29.49-3.49-32.65Z"/>
    </g>
  </g>
</svg>