<?xml version="1.0" encoding="UTF-8"?>
<svg id="Camada_2" data-name="Camada 2" xmlns="http://www.w3.org/2000/svg" xmlns:xlink="http://www.w3.org/1999/xlink" viewBox="0 0 137.09 139.33">
  <defs>
    <style>
      .cls-1 {
        fill: url(#Gradiente_sem_nome_224);
      }

      .cls-2 {
        fill: url(#Gradiente_sem_nome_224-5);
      }

      .cls-3 {
        fill: url(#Gradiente_sem_nome_224-2);
      }

      .cls-4 {
        fill: url(#Gradiente_sem_nome_224-3);
      }

      .cls-5 {
        fill: url(#Gradiente_sem_nome_8);
      }

      .cls-6 {
        fill: url(#Gradiente_sem_nome_224-4);
      }
    </style>
    <radialGradient id="Gradiente_sem_nome_224" data-name="Gradiente sem nome 224" cx="37.42" cy="93.84" fx="37.42" fy="93.84" r="32.18" gradientUnits="userSpaceOnUse">
      <stop offset="0" stop-color="#bbc744"/>
      <stop offset="1" stop-color="#176d40"/>
    </radialGradient>
    <radialGradient id="Gradiente_sem_nome_224-2" data-name="Gradiente sem nome 224" cx="99.67" fx="99.67" r="32.18" xlink:href="#Gradiente_sem_nome_224"/>
    <radialGradient id="Gradiente_sem_nome_224-3" data-name="Gradiente sem nome 224" cx="39.47" cy="63.81" fx="39.47" fy="63.81" r="35.89" xlink:href="#Gradiente_sem_nome_224"/>
    <radialGradient id="Gradiente_sem_nome_224-4" data-name="Gradiente sem nome 224" cx="97.63" cy="63.81" fx="97.63" fy="63.81" r="35.89" xlink:href="#Gradiente_sem_nome_224"/>
    <radialGradient id="Gradiente_sem_nome_224-5" data-name="Gradiente sem nome 224" cx="68.53" cy="42.12" fx="68.53" fy="42.12" r="31.71" xlink:href="#Gradiente_sem_nome_224"/>
    <radialGradient id="Gradiente_sem_nome_8" data-name="Gradiente sem nome 8" cx="68.53" cy="127.26" fx="68.53" fy="127.26" r="12.96" gradientUnits="userSpaceOnUse">
      <stop offset="0" stop-color="#f2aeae"/>
      <stop offset="1" stop-color="#cc76a7"/>
    </radialGradient>
  </defs>
  <g id="Camada_2-2" data-name="Camada 2">
    <g>
      <g>
        <g>
          <path class="cls-1" d="M58.16,110.29c-24.02-26.6-40.39-.74-55.39-18.45-7.57-9.92,1.66-23.32,12.76-23.81,20.48-1.72,53.07,19.24,58.98,38.59,1.19,4.98-.66,12.8-6.22,13.12-2.9-.12-5.82-4.5-9.79-9.09l-.33-.37Z"/>
          <path class="cls-3" d="M78.94,110.29c24.02-26.6,40.39-.74,55.39-18.45,7.57-9.92-1.66-23.32-12.76-23.81-20.48-1.72-53.07,19.24-58.98,38.59-1.19,4.98.66,12.8,6.22,13.12,2.9-.12,5.82-4.5,9.79-9.09l.33-.37Z"/>
        </g>
        <g>
          <path class="cls-4" d="M34.69,58.4c-9.52-4.9-18.68-4.63-23.7-11.7-7.31-10.03,3.06-26.07,14.98-22.68,19.16,3.5,44.35,37.84,44.31,65,.26,4.48.04,11.27-1.77,14.2-.34.5-.7.78-1.07.84-.38.06-.77-.1-1.16-.45-3.19-2.89-6.3-17.3-14.32-29.39-4.29-6.61-10.27-12.3-16.85-15.6l-.42-.21Z"/>
          <path class="cls-6" d="M102.4,58.4c9.52-4.9,18.68-4.63,23.7-11.7,7.31-10.03-3.06-26.07-14.98-22.68-19.16,3.5-44.35,37.84-44.31,65-.26,4.48-.04,11.27,1.77,14.2.34.5.7.78,1.07.84.38.06.77-.1,1.16-.45,3.19-2.89,6.3-17.3,14.32-29.39,4.29-6.61,10.27-12.3,16.85-15.6l.42-.21Z"/>
        </g>
        <path class="cls-2" d="M83.9,20.93c-.05-6.54-1.7-14.08-6.53-17.86-6.22-5.04-16.09-3.8-20.55,3.25-5.36,9.07-3.63,20.43-2.3,30.64,1.48,10.87,11.97,54.34,15.24,46.31,7.47-17.94,13.7-42.1,14.14-61.89v-.44Z"/>
      </g>
      <path class="cls-5" d="M67.73,115.33c16.83-2.11,20.96,22.2,2.56,23.9-19.59,1.82-20.95-21.59-2.56-23.9Z"/>
    </g>
  </g>
</svg>