<?xml version="1.0" encoding="UTF-8"?>
<svg id="Camada_2" data-name="Camada 2" xmlns="http://www.w3.org/2000/svg" xmlns:xlink="http://www.w3.org/1999/xlink" viewBox="0 0 119.98 131.65">
  <defs>
    <style>
      .cls-1 {
        fill: url(#Gradiente_sem_nome_8);
      }
    </style>
    <radialGradient id="Gradiente_sem_nome_8" data-name="Gradiente sem nome 8" cx="59.99" cy="65.83" fx="59.99" fy="65.83" r="62.97" gradientUnits="userSpaceOnUse">
      <stop offset="0" stop-color="#f2aeae"/>
      <stop offset="1" stop-color="#cc76a7"/>
    </radialGradient>
  </defs>
  <g id="Camada_2-2" data-name="Camada 2">
    <path class="cls-1" d="M72.99,25.59l.61,2.05c10.68,1.38,21.94,3.53,23.4,16.2,1.19,10.33-.05,19.23-9.05,25.42l-12.88,6.43c13.93,1.14,29.21,6.61,36.92,18.96,6.97,11.17,7.77,21.36,7.98,34.33L.86,131.65c-2.36-1.66.77-15.28,1.62-18.35,6.03-21.54,22.05-35.15,44.38-37.61l-11.12-6.62c-12.53-12.82-4.34-28.63,9.39-36.37,4.07-2.3,8.37-3.11,12.18-5.58-11.34-3.34-10.12-20.85,0-25.06,7.59-3.16,16.89-3.24,22.51,3.59,5.66,6.87.66,17.2-6.85,19.93Z"/>
  </g>
</svg>