<?xml version="1.0" encoding="UTF-8"?>
<svg id="Camada_2" data-name="Camada 2" xmlns="http://www.w3.org/2000/svg" viewBox="0 0 154.99 170.07">
  <defs>
    <style>
      .cls-1 {
        fill: #cc76a7;
      }
    </style>
  </defs>
  <g id="Camada_3" data-name="Camada 3">
    <path class="cls-1" d="M94.29,33.05l.79,2.65c13.8,1.79,28.34,4.56,30.23,20.93,1.53,13.34-.06,24.85-11.69,32.84l-16.63,8.31c18,1.47,37.74,8.53,47.7,24.49,9,14.42,10.04,27.59,10.31,44.35L1.12,170.07c-3.05-2.15.99-19.74,2.1-23.7,7.79-27.83,28.49-45.41,57.33-48.59l-14.36-8.55c-16.19-16.57-5.61-36.98,12.13-46.98,5.26-2.97,10.81-4.01,15.73-7.2-14.65-4.31-13.08-26.93,0-32.37,9.81-4.08,21.82-4.19,29.08,4.64,7.31,8.87.85,22.22-8.84,25.75Z"/>
  </g>
</svg>