<?xml version="1.0" encoding="UTF-8"?>
<svg id="Camada_2" data-name="Camada 2" xmlns="http://www.w3.org/2000/svg" xmlns:xlink="http://www.w3.org/1999/xlink" viewBox="0 0 166.4 107.01">
  <defs>
    <style>
      .cls-1 {
        fill: url(#Gradiente_sem_nome_7);
      }

      .cls-2 {
        fill: url(#Gradiente_sem_nome_8);
      }
    </style>
    <radialGradient id="Gradiente_sem_nome_8" data-name="Gradiente sem nome 8" cx="54.26" cy="11.55" fx="54.26" fy="11.55" r="11.59" gradientUnits="userSpaceOnUse">
      <stop offset="0" stop-color="#f2aeae"/>
      <stop offset="1" stop-color="#cc76a7"/>
    </radialGradient>
    <radialGradient id="Gradiente_sem_nome_7" data-name="Gradiente sem nome 7" cx="83.2" cy="57.66" fx="83.2" fy="57.66" r="68.4" gradientUnits="userSpaceOnUse">
      <stop offset=".44" stop-color="#f19152"/>
      <stop offset=".97" stop-color="#e95c42"/>
    </radialGradient>
  </defs>
  <g id="Camada_2-2" data-name="Camada 2">
    <g>
      <path class="cls-2" d="M65.89,11.5c0-6.18-5.44-11.5-11.63-11.5s-11.63,5.31-11.63,11.5,5.45,11.59,11.63,11.59,11.63-5.41,11.63-11.59Z"/>
      <path class="cls-1" d="M16.26,83.37C5.53,73.32-3,58.07,1.01,42.92c3.13-13.43,16.16-29.11,27.63-26.56,4.8,1.07,8.58,5.37,10.3,8.96,3.19,6.64.85,13.58-.17,16.59-2.63,7.81-6.55,8.57-6.89,13.61-.43,6.5,5.65,12.62,10.19,15.45,16.76,10.45,49.28,3.99,47.35-17.58-.85-12.24-23.21-29.26-15.89-38.88,5.79-6.78,18.64-5.86,25.55-.6,8.91,7.21,10.96,16.78,10.99,25.87-.17,10.3-4.68,18.74-6.63,21.99-2.02,3.27-5.52,7.19-7.82,10.26-3.38,4.42,2.33,2.55,4.29.85,6.56-4.81,14.02-16.46,14.8-30.99.31-4.79-.28-9.7-1.35-14.36-1.73-7.17-5.11-15,3.86-18.38,10.44-3.84,15.92,6.24,17.38,15.1,1.99,12.58-.8,20.47-4.44,30.63-3.96,9.92-7.63,14.87-12.44,22.22-1.31,2.59,3.35-1.5,5.29-3.27,4.44-4.16,8.2-8.47,11.63-13.36,3.61-5.16,7.2-11.56,7.69-18.7.96-9.84-7.53-24.93,4.94-30.07,14.1-3.48,19.4,15.75,19.14,26.63-.09,24.34-17.74,46.52-35.3,57.59-28.87,18.2-61.52,9.29-74.89,5.86-18-4.62-31.48-12.52-39.94-18.42Z"/>
    </g>
  </g>
</svg>