<?xml version="1.0" encoding="UTF-8"?>
<svg id="Camada_2" data-name="Camada 2" xmlns="http://www.w3.org/2000/svg" viewBox="0 0 225.8 144.76">
  <defs>
    <style>
      .cls-1 {
        fill: #cc76a7;
      }

      .cls-2 {
        fill: #ebbe28;
      }
    </style>
  </defs>
  <g id="Camada_3" data-name="Camada 3">
    <path class="cls-1" d="M89.33,15.15c0-4.2-2.44-7.75-5.19-10.5s-6.3-4.65-10.5-4.65-8.12,1.54-10.87,4.29-4.61,6.67-4.61,10.87,2.14,7.83,4.89,10.58,6.39,4.32,10.58,4.32,8.15-1.25,10.9-4,4.79-6.71,4.79-10.9Z"/>
    <path class="cls-2" d="M22.06,112.68C7.51,99.04-4.07,78.35,1.37,57.79,5.61,39.56,23.29,18.29,38.86,21.74c6.52,1.45,11.64,7.29,13.98,12.16,4.33,9.02,1.15,18.43-.23,22.52-3.57,10.6-8.89,11.63-9.35,18.47-.59,8.82,7.66,17.13,13.83,20.97,22.74,14.18,66.88,5.41,64.25-23.86-1.15-16.61-31.49-39.7-21.56-52.76,7.86-9.2,25.3-7.95,34.68-.81,12.09,9.78,14.88,22.77,14.91,35.1-.24,13.98-6.35,25.43-9,29.84-2.74,4.44-7.49,9.75-10.61,13.93-4.58,5.99,3.16,3.46,5.83,1.15,8.91-6.53,19.02-22.33,20.08-42.05.42-6.51-.38-13.17-1.83-19.48-2.34-9.73-6.94-20.35,5.23-24.95,14.17-5.21,21.6,8.46,23.58,20.5,2.7,17.08-1.09,27.78-6.03,41.57-5.38,13.46-10.36,20.18-16.89,30.15-1.77,3.52,4.55-2.04,7.17-4.43,6.03-5.65,11.12-11.49,15.78-18.13,4.9-7.01,9.78-15.69,10.44-25.37,1.3-13.35-10.22-33.83,6.7-40.8,19.14-4.72,26.33,21.38,25.97,36.14-.12,33.03-24.08,63.13-47.9,78.14-39.17,24.69-83.48,12.61-101.63,7.95-24.42-6.27-42.72-16.99-54.2-25Z"/>
  </g>
</svg>