<?xml version="1.0" encoding="UTF-8"?>
<svg id="Camada_2" data-name="Camada 2" xmlns="http://www.w3.org/2000/svg" viewBox="0 0 204.25 159.89">
  <defs>
    <style>
      .cls-1 {
        fill: #0a6637;
      }

      .cls-2 {
        fill: #ebbe28;
      }
    </style>
  </defs>
  <g id="Camada_3" data-name="Camada 3">
    <path class="cls-2" d="M173.15,23.44c0-5.48-2.61-10.83-6.21-14.42-3.59-3.59-8.94-6.22-14.42-6.22s-10.95,2.5-14.54,6.1c-3.59,3.59-4.65,9.06-4.65,14.54s1.76,10.24,5.35,13.84c3.59,3.59,8.35,5.72,13.84,5.72s10.85-1.52,14.44-5.12c3.59-3.59,6.19-8.95,6.19-14.44Z"/>
    <path class="cls-1" d="M7.2,158.04c-3.74-.06-6.75-3.05-6.89-6.79C-2.09,85.08,9.55,33.94,29.41,15.57,34.84,10.55,45.92.29,61.53,0c12.14-.22,21.34,5.53,23.49,7.2,30.67,23.84,19.78,86.04,35.18,89.51,11.38,2.56,21.73-31.23,43.27-29.72,5.58.39,9.54,2.99,12.34,4.82,23.3,15.29,27.63,61.75,28.44,80.77.17,3.99-3.02,7.32-7.02,7.3-24.15-.07-48.4-.21-72.74-.41-39.35-.32-78.44-.81-117.29-1.45Z"/>
    <path class="cls-2" d="M75.22,74.09c0-5.3-1.9-10.5-5.02-14.05-3.3-3.75-8.39-5.02-13.53-5.02s-10.1,1.39-13.4,5.14c-3.12,3.55-5.18,8.64-5.18,13.94s2.19,10.27,5.32,13.82c3.3,3.75,8.12,6.07,13.27,6.07s9.59-2.65,12.9-6.4c3.12-3.55,5.66-8.19,5.66-13.49Z"/>
  </g>
</svg>