<?xml version="1.0" encoding="UTF-8"?>
<svg id="Camada_2" data-name="Camada 2" xmlns="http://www.w3.org/2000/svg" xmlns:xlink="http://www.w3.org/1999/xlink" viewBox="0 0 166.47 130.32">
  <defs>
    <style>
      .cls-1 {
        fill: url(#Gradiente_sem_nome_9);
      }

      .cls-2 {
        fill: url(#Gradiente_sem_nome_17);
      }

      .cls-3 {
        fill: url(#Gradiente_sem_nome_4);
      }
    </style>
    <radialGradient id="Gradiente_sem_nome_17" data-name="Gradiente sem nome 17" cx="124.89" cy="18.66" fx="124.89" fy="18.66" r="16.3" gradientUnits="userSpaceOnUse">
      <stop offset="0" stop-color="#ffe375"/>
      <stop offset="1" stop-color="#ebbe28"/>
    </radialGradient>
    <radialGradient id="Gradiente_sem_nome_9" data-name="Gradiente sem nome 9" cx="83.23" cy="65.16" fx="83.23" fy="65.16" r="74.74" gradientUnits="userSpaceOnUse">
      <stop offset=".19" stop-color="#bbc744"/>
      <stop offset="1" stop-color="#176d40"/>
    </radialGradient>
    <radialGradient id="Gradiente_sem_nome_4" data-name="Gradiente sem nome 4" cx="46.18" cy="60.72" fx="46.18" fy="60.72" r="15.51" gradientUnits="userSpaceOnUse">
      <stop offset="0" stop-color="#649ec9"/>
      <stop offset="1" stop-color="#0e3e66"/>
    </radialGradient>
  </defs>
  <g id="Camada_2-2" data-name="Camada 2">
    <g>
      <path class="cls-2" d="M141.12,19.1c0-4.47-2.13-8.83-5.06-11.76s-7.29-5.07-11.76-5.07-8.92,2.04-11.85,4.97-3.79,7.38-3.79,11.85,1.43,8.35,4.36,11.28,6.81,4.66,11.28,4.66,8.84-1.24,11.77-4.17,5.04-7.3,5.04-11.77Z"/>
      <path class="cls-1" d="M5.87,128.8c-3.05-.05-5.5-2.49-5.61-5.53C-1.7,69.34,7.78,27.66,23.97,12.69,28.39,8.59,37.43.24,50.14,0c9.89-.18,17.4,4.51,19.14,5.87,24.99,19.43,16.12,70.13,28.68,72.95,9.28,2.09,17.71-25.45,35.26-24.22,4.55.32,7.78,2.43,10.05,3.93,18.99,12.46,22.52,50.33,23.18,65.83.14,3.26-2.46,5.96-5.72,5.95-19.68-.06-39.44-.17-59.28-.33-32.07-.26-63.93-.66-95.59-1.18Z"/>
      <path class="cls-3" d="M61.31,60.39c0-4.32-1.55-8.56-4.09-11.45-2.69-3.06-6.83-4.1-11.03-4.1s-8.23,1.13-10.92,4.19c-2.55,2.89-4.22,7.04-4.22,11.36s1.79,8.37,4.33,11.26c2.69,3.06,6.62,4.95,10.81,4.95s7.82-2.16,10.51-5.22c2.55-2.89,4.61-6.67,4.61-10.99Z"/>
    </g>
  </g>
</svg>