<?xml version="1.0" encoding="UTF-8"?>
<svg id="Camada_2" data-name="Camada 2" xmlns="http://www.w3.org/2000/svg" viewBox="0 0 280 280">
  <defs>
    <style>
      .cls-1 {
        fill: #cc76a7;
      }

      .cls-2 {
        fill: #0a6637;
      }

      .cls-3 {
        fill: #ebbe28;
      }
    </style>
  </defs>
  <g id="Camada_3" data-name="Camada 3">
    <rect class="cls-1" width="280" height="280"/>
    <g>
      <path class="cls-3" d="M209.9,83.49c0-5.48-1.41-10.91-5.01-14.5s-9.02-5.19-14.5-5.19-10.56,1.94-14.16,5.53-5.25,8.67-5.25,14.16,2.22,10,5.81,13.59,8.11,5.91,13.59,5.91,10.95-1.37,14.54-4.96,4.97-9.06,4.97-14.54Z"/>
      <path class="cls-2" d="M45.07,218.09c-3.74-.06-6.75-3.05-6.89-6.79-2.4-66.17,9.24-117.31,29.09-135.68,5.43-5.02,16.52-15.28,32.12-15.56,12.14-.22,21.34,5.53,23.49,7.2,30.67,23.84,19.78,86.04,35.18,89.51,11.38,2.56,21.73-31.23,43.27-29.72,5.58.39,9.54,2.99,12.34,4.82,23.3,15.29,27.63,61.75,28.44,80.77.17,3.99-3.02,7.32-7.02,7.3-24.15-.07-48.4-.21-72.74-.41-39.35-.32-78.44-.81-117.29-1.45Z"/>
      <path class="cls-3" d="M113.1,134.15c0-5.3-2.47-10-5.6-13.55-3.3-3.75-7.81-6.03-12.96-6.03s-10.08,1.91-13.38,5.65c-3.12,3.55-4.55,8.61-4.55,13.92s1.78,10.06,4.91,13.6c3.3,3.75,7.88,5.45,13.02,5.45s9.58-1.83,12.88-5.58c3.12-3.55,5.67-8.18,5.67-13.48Z"/>
    </g>
  </g>
</svg>