<?xml version="1.0" encoding="UTF-8"?>
<svg id="Camada_2" data-name="Camada 2" xmlns="http://www.w3.org/2000/svg" viewBox="0 0 242.86 203.93">
  <defs>
    <style>
      .cls-1 {
        fill: #0e3e66;
      }
    </style>
  </defs>
  <g id="Camada_3" data-name="Camada 3">
    <g>
      <path class="cls-1" d="M200.23,28.15c19.41,6.39,47.4,24.85,41.94,48.11-5.86,15.93-28.31,14.63-40.57,6.97-14.94-9.43-21.64-28.49-39.97-32.91-13.88-4.48-33.67.28-14.84,16.54,36.59,26.44,53.77,66.44,34.27,109.64-4.34,9.21-10.19,18.52-18.91,23.96-12.83,8.21-30.2,1.1-34.08-13.28-3.63-13.48.44-29.26,2.8-42.61,2.56-14.51,5.85-30.12,2.59-44.78-.83-3.72-3.21-12.87-7.16-14.44-6.04-2.4-7.32,14.05-8.26,17.45-2.64,15.91-7.71,31.17-16.07,43.94-11.21,17.88-26.55,31.34-47.7,39.1-14.82,5.22-36.44,10.46-48.46-2.15-9.11-10.45-5.5-27.27,1.99-37.85,8.76-12.66,23.07-18.84,37.89-22.18,21-3.17,44.41-14.52,52.86-35.91,8.24-19.56-12.57-10.05-22.36-6.38-8.55,3.09-17.56,5.12-26.72,4.67-17.75-.7-38.9-10.53-46.76-24.5C-2.69,52.53.07,40.46,10.13,36.09c10.63-5.38,23.88-2.13,33.85,3.9,11.83,6.84,23.05,21.49,37.53,15.82,4.56-1.78,9.07-4.64,11.29-9.19,1.57-3.22.85-6.11-.13-9.39-3.12-10.45,11.2-12.28,18.25-9.03,13.9,6.4,28.64.77,42.75-2.08,15.62-2.81,31.51-2.57,45.76,1.79l.8.25Z"/>
      <path class="cls-1" d="M97.79,19.42c3.31-5.22.89-13.17-5.14-17.07-6.03-3.91-14.19-2.82-17.5,2.41-3.31,5.22-.94,13.26,5.09,17.17,6.03,3.91,14.24,2.72,17.55-2.5Z"/>
    </g>
  </g>
</svg>