<?xml version="1.0" encoding="UTF-8"?>
<svg id="Camada_2" data-name="Camada 2" xmlns="http://www.w3.org/2000/svg" viewBox="0 0 527.41 120.58">
  <defs>
    <style>
      .cls-1 {
        fill: #83c1e9;
      }
    </style>
  </defs>
  <g id="Camada_2-2" data-name="Camada 2">
    <g>
      <g>
        <g>
          <path class="cls-1" d="M235.28,103.77h-24.1c-19.51,0-35.22-15.8-35.22-35.31s15.71-35.21,35.22-35.21h24.1c2.63,0,4.78,2.15,4.78,4.78v8.1c0,2.63-2.15,4.78-4.78,4.78h-41.75c-1.75,0-3.12,1.46-3.12,3.22,0,.68.19,1.37.58,1.85l22.24,39.8c.49.98,1.56,1.56,2.73,1.56,1.76,0,3.32-1.46,3.32-3.22v-24c0-2.63,2.15-4.78,4.78-4.78h11.22c2.63,0,4.78,2.15,4.78,4.78v28.78c0,2.63-2.15,4.88-4.78,4.88Z"/>
          <path class="cls-1" d="M365.59,98.99c0,2.64-2.15,4.78-4.78,4.78h-11.22c-2.63,0-4.78-2.15-4.78-4.78v-31.31c0-1.76-1.46-3.22-3.22-3.22h-26.44c-1.75,0-3.22,1.46-3.22,3.22,0,.59.19,1.27.49,1.76l15.71,27.12c.39.68.68,1.56.68,2.44,0,2.64-2.24,4.78-4.88,4.78h-19.22c-2.63,0-4.78-2.15-4.78-4.78v-62.53c0-2.63,2.15-4.78,4.78-4.78.88,0,1.66.19,2.34.58l30.43,17.56c3.02,1.75,3.61,1.85,4.1,1.85,1.75,0,3.22-1.46,3.22-3.22v-10.44c0-2.64,2.15-4.78,4.78-4.78h11.22c2.63,0,4.78,2.15,4.78,4.78v60.97Z"/>
          <path class="cls-1" d="M435.62,103.77h-24.1c-19.51,0-35.21-15.8-35.21-35.31s15.71-35.21,35.21-35.21h24.1c2.64,0,4.78,2.15,4.78,4.78v8.1c0,2.63-2.15,4.78-4.78,4.78h-41.75c-1.76,0-3.12,1.46-3.12,3.22,0,.68.19,1.37.59,1.85l22.24,39.8c.48.98,1.56,1.56,2.73,1.56,1.75,0,3.31-1.46,3.31-3.22v-24c0-2.63,2.15-4.78,4.78-4.78h11.22c2.64,0,4.78,2.15,4.78,4.78v28.78c0,2.63-2.15,4.88-4.78,4.88Z"/>
          <path class="cls-1" d="M500.98,103.77c-2.64,0-4.78-2.15-4.78-4.78v-36.97c0-1.76-1.37-3.22-3.12-3.22-.58,0-1.07.1-1.56.39l-22.54,12.88c-.97.59-1.56,1.66-1.56,2.44,0,.68.1,1.37.39,1.95l11.71,20.09c.39.68.68,1.46.68,2.44,0,2.64-2.15,4.78-4.78,4.78h-24.88c-2.63,0-4.78-2.15-4.78-4.78,0-.97.19-1.75.58-2.44l36.09-62.53c.78-1.46,2.34-2.34,4.1-2.34s3.42.88,4.2,2.34l36.09,62.43c.39.68.59,1.56.59,2.54,0,2.64-2.15,4.78-4.78,4.78h-21.65Z"/>
        </g>
        <path class="cls-1" d="M278.13,102.42h-16.75c-3.05,0-5.54-2.49-5.54-5.55v-46.51c0-3.05,2.49-5.55,5.54-5.55h16.75c3.05,0,5.54,2.49,5.54,5.55v46.51c0,3.06-2.49,5.55-5.54,5.55ZM272.47,39.28c-6.11,0-11.09-5.09-11.09-11.2s4.98-11.09,11.09-11.09,11.2,4.98,11.2,11.09-5.09,11.2-11.2,11.2Z"/>
      </g>
      <g>
        <path class="cls-1" d="M119.25,8.01c12.23,2.33,30.6,11.29,29.12,25.78-2.29,10.09-15.96,11.07-23.97,7.4-9.77-4.52-15.32-15.52-26.74-16.75-8.74-1.62-20.33,2.81-7.67,11.16,24.19,13.11,37.72,35.93,29.33,63.57-1.9,5.91-4.7,11.99-9.54,15.97-7.11,5.97-18.17,3.04-21.64-5.35-3.26-7.86-2.03-17.72-1.66-25.97.41-8.97,1.17-18.66-1.95-27.27-.79-2.18-2.95-7.53-5.46-8.16-3.84-.97-3.32,9.06-3.62,11.2-.34,9.82-2.21,19.45-6.26,27.82-5.37,11.69-13.58,21.03-25.75,27.38-8.54,4.32-21.2,9.19-29.45,2.51-6.33-5.6-5.47-16.05-1.77-23.03,4.3-8.34,12.46-13.2,21.15-16.38,12.44-3.56,25.7-12.27,29.12-25.86,3.44-12.47-8.38-5.09-14.01-2.1-4.93,2.54-10.21,4.47-15.78,4.92-10.78.97-24.34-3.31-30.19-11.13-3.98-5.02-3.26-12.53,2.48-15.96,6-4.09,14.26-3.17,20.76-.3,7.69,3.2,15.62,11.17,23.92,6.61,2.61-1.44,5.12-3.52,6.1-6.44.7-2.07.03-3.76-.82-5.67-2.71-6.07,5.8-8.3,10.32-6.89,8.9,2.78,17.37-1.79,25.67-4.62,9.22-2.93,18.84-4.03,27.8-2.52l.5.09Z"/>
        <path class="cls-1" d="M56.65,10.79c1.59-3.42-.5-8.03-4.45-9.92-3.95-1.89-8.8-.59-10.39,2.83-1.59,3.42.48,8.09,4.43,9.98,3.95,1.89,8.83.53,10.42-2.89Z"/>
      </g>
    </g>
  </g>
</svg>