<?xml version="1.0" encoding="UTF-8"?>
<svg id="Camada_2" data-name="Camada 2" xmlns="http://www.w3.org/2000/svg" viewBox="0 0 530.58 127.52">
  <defs>
    <style>
      .cls-1 {
        fill: #fff;
      }
    </style>
  </defs>
  <g id="Camada_2-2" data-name="Camada 2">
    <g>
      <g>
        <g>
          <path class="cls-1" d="M242.71,109.72h-23.74c-19.23,0-34.7-15.57-34.7-34.8s15.48-34.7,34.7-34.7h23.74c2.59,0,4.71,2.11,4.71,4.71v7.98c0,2.59-2.12,4.71-4.71,4.71h-41.14c-1.73,0-3.07,1.44-3.07,3.17,0,.67.19,1.35.57,1.83l21.92,39.22c.48.96,1.54,1.54,2.69,1.54,1.73,0,3.27-1.44,3.27-3.17v-23.65c0-2.59,2.12-4.71,4.71-4.71h11.06c2.59,0,4.71,2.12,4.71,4.71v28.36c0,2.59-2.12,4.81-4.71,4.81Z"/>
          <path class="cls-1" d="M371.12,105.01c0,2.6-2.12,4.71-4.71,4.71h-11.06c-2.59,0-4.71-2.11-4.71-4.71v-30.86c0-1.73-1.44-3.17-3.17-3.17h-26.05c-1.73,0-3.17,1.44-3.17,3.17,0,.58.19,1.25.48,1.73l15.48,26.72c.38.67.67,1.54.67,2.4,0,2.6-2.21,4.71-4.81,4.71h-18.94c-2.59,0-4.71-2.11-4.71-4.71v-61.62c0-2.59,2.12-4.71,4.71-4.71.86,0,1.63.19,2.31.57l29.99,17.3c2.98,1.73,3.56,1.83,4.04,1.83,1.73,0,3.17-1.44,3.17-3.17v-10.28c0-2.6,2.12-4.71,4.71-4.71h11.06c2.59,0,4.71,2.11,4.71,4.71v60.08Z"/>
          <path class="cls-1" d="M440.13,109.72h-23.74c-19.22,0-34.7-15.57-34.7-34.8s15.48-34.7,34.7-34.7h23.74c2.6,0,4.71,2.11,4.71,4.71v7.98c0,2.59-2.12,4.71-4.71,4.71h-41.14c-1.73,0-3.08,1.44-3.08,3.17,0,.67.19,1.35.58,1.83l21.92,39.22c.48.96,1.54,1.54,2.69,1.54,1.73,0,3.27-1.44,3.27-3.17v-23.65c0-2.59,2.12-4.71,4.71-4.71h11.05c2.6,0,4.71,2.12,4.71,4.71v28.36c0,2.59-2.12,4.81-4.71,4.81Z"/>
          <path class="cls-1" d="M504.53,109.72c-2.6,0-4.71-2.11-4.71-4.71v-36.43c0-1.73-1.35-3.17-3.08-3.17-.57,0-1.06.1-1.54.39l-22.21,12.69c-.96.58-1.54,1.63-1.54,2.4,0,.67.1,1.35.38,1.92l11.54,19.8c.38.67.67,1.44.67,2.4,0,2.6-2.12,4.71-4.71,4.71h-24.51c-2.59,0-4.71-2.11-4.71-4.71,0-.96.19-1.73.57-2.4l35.57-61.62c.77-1.44,2.31-2.31,4.04-2.31s3.37.86,4.13,2.31l35.57,61.52c.39.67.58,1.54.58,2.5,0,2.6-2.12,4.71-4.71,4.71h-21.34Z"/>
        </g>
        <path class="cls-1" d="M284.94,108.39h-16.51c-3.01,0-5.46-2.45-5.46-5.46v-45.83c0-3.01,2.45-5.46,5.46-5.46h16.51c3.01,0,5.46,2.45,5.46,5.46v45.83c0,3.01-2.45,5.46-5.46,5.46ZM279.36,46.17c-6.02,0-10.93-5.02-10.93-11.04s4.91-10.93,10.93-10.93,11.04,4.91,11.04,10.93-5.02,11.04-11.04,11.04Z"/>
      </g>
      <g>
        <path class="cls-1" d="M126.11,8.47c12.94,2.47,32.36,11.94,30.8,27.26-2.42,10.67-16.88,11.7-25.35,7.83-10.33-4.78-16.2-16.41-28.28-17.71-9.25-1.71-21.5,2.98-8.11,11.81,25.58,13.86,39.89,38,31.02,67.23-2.01,6.25-4.97,12.68-10.09,16.88-7.52,6.31-19.21,3.21-22.89-5.65-3.44-8.31-2.15-18.74-1.75-27.47.43-9.49,1.23-19.74-2.06-28.84-.84-2.31-3.12-7.96-5.78-8.63-4.06-1.03-3.51,9.59-3.83,11.84-.36,10.39-2.33,20.57-6.62,29.42-5.68,12.36-14.36,22.24-27.23,28.96-9.04,4.57-22.42,9.71-31.15,2.65-6.69-5.93-5.78-16.97-1.88-24.36,4.55-8.82,13.18-13.96,22.37-17.33,13.16-3.77,27.18-12.97,30.8-27.35,3.64-13.19-8.87-5.38-14.82-2.22-5.21,2.69-10.8,4.73-16.69,5.21-11.4,1.03-25.74-3.5-31.93-11.77-4.21-5.31-3.45-13.25,2.62-16.88,6.35-4.32,15.08-3.35,21.96-.32,8.13,3.39,16.52,11.82,25.3,6.99,2.76-1.52,5.41-3.72,6.45-6.81.74-2.19.04-3.97-.86-5.99-2.86-6.42,6.14-8.78,10.92-7.29,9.41,2.94,18.37-1.89,27.15-4.89,9.75-3.1,19.92-4.26,29.4-2.66l.53.09Z"/>
        <path class="cls-1" d="M59.92,11.41c1.68-3.61-.53-8.49-4.71-10.49-4.18-2-9.31-.62-10.99,2.99-1.68,3.61.51,8.56,4.68,10.56,4.18,2,9.34.56,11.02-3.06Z"/>
      </g>
    </g>
  </g>
</svg>